<?xml version="1.0" ?><svg viewBox="0 0 512 512" xmlns="http://www.w3.org/2000/svg"><g data-name="Capa 8" id="Capa_8"><path d="M204.54,388.18a5.93,5.93,0,0,1-4.24-1.76L125.58,311.7a6,6,0,0,1,0-8.48l184-184a6,6,0,0,1,8.49,0l74.72,74.72a6,6,0,0,1,0,8.49l-184,184A6,6,0,0,1,204.54,388.18ZM138.3,307.46l66.24,66.24L380.05,198.18,313.82,132Z"/><path d="M388.54,204.18a6,6,0,0,1-4.25-1.75l-74.72-74.72a6,6,0,0,1,0-8.49l14.7-14.7a46.14,46.14,0,0,1,65.18,0l18,18a46.09,46.09,0,0,1,0,65.18l-14.7,14.7A6,6,0,0,1,388.54,204.18ZM322.3,123.46l66.24,66.24L399,179.24A34.08,34.08,0,0,0,399,131h0l-18-18a34.13,34.13,0,0,0-48.21,0Z"/><path d="M111.39,421.2a20.45,20.45,0,0,1-14.73-5.86c-6-6-7.48-15.08-4-24.38l31.58-85.58a6,6,0,0,1,9.87-2.16l74.72,74.72a6,6,0,0,1-2.16,9.87L121,419.39h0A27.94,27.94,0,0,1,111.39,421.2Zm5.49-13.06,2.08,5.62-2.08-5.62,76.79-28.34L132.2,318.33l-28.34,76.79c-1.76,4.78-1.28,9.17,1.28,11.74S112.1,409.9,116.88,408.14Z"/></g></svg>